<?xml version="1.0" encoding="utf-8" standalone="no"?>
<!DOCTYPE svg PUBLIC "-//W3C//DTD SVG 1.1//EN"
  "http://www.w3.org/Graphics/SVG/1.1/DTD/svg11.dtd">
<svg xmlns:xlink="http://www.w3.org/1999/xlink" width="720pt" height="432pt" viewBox="0 0 720 432" xmlns="http://www.w3.org/2000/svg" version="1.1">
 <metadata>
  <rdf:RDF xmlns:dc="http://purl.org/dc/elements/1.1/" xmlns:cc="http://creativecommons.org/ns#" xmlns:rdf="http://www.w3.org/1999/02/22-rdf-syntax-ns#">
   <cc:Work>
    <dc:type rdf:resource="http://purl.org/dc/dcmitype/StillImage"/>
    <dc:date>2025-04-14T18:45:20.658643</dc:date>
    <dc:format>image/svg+xml</dc:format>
    <dc:creator>
     <cc:Agent>
      <dc:title>Matplotlib v3.10.0, https://matplotlib.org/</dc:title>
     </cc:Agent>
    </dc:creator>
   </cc:Work>
  </rdf:RDF>
 </metadata>
 <defs>
  <style type="text/css">*{stroke-linejoin: round; stroke-linecap: butt}</style>
 </defs>
 <g id="figure_1">
  <g id="patch_1">
   <path d="M 0 432 
L 720 432 
L 720 0 
L 0 0 
z
" style="fill: #ffffff"/>
  </g>
  <g id="axes_1">
   <g id="patch_2">
    <path d="M 50.87 390.04 
L 576.58 390.04 
L 576.58 26.88 
L 50.87 26.88 
z
" style="fill: #ffffff"/>
   </g>
   <g id="patch_3">
    <path d="M 72.774583 390.04 
L 116.58375 390.04 
L 116.58375 368.821186 
L 72.774583 368.821186 
z
" clip-path="url(#p27751945f4)" style="fill: #00984a"/>
   </g>
   <g id="patch_4">
    <path d="M 160.392917 390.04 
L 204.202083 390.04 
L 204.202083 359.27272 
L 160.392917 359.27272 
z
" clip-path="url(#p27751945f4)" style="fill: #00984a"/>
   </g>
   <g id="patch_5">
    <path d="M 248.01125 390.04 
L 291.820417 390.04 
L 291.820417 368.821186 
L 248.01125 368.821186 
z
" clip-path="url(#p27751945f4)" style="fill: #00984a"/>
   </g>
   <g id="patch_6">
    <path d="M 335.629583 390.04 
L 379.43875 390.04 
L 379.43875 335.932025 
L 335.629583 335.932025 
z
" clip-path="url(#p27751945f4)" style="fill: #00984a"/>
   </g>
   <g id="patch_7">
    <path d="M 423.247917 390.04 
L 467.057083 390.04 
L 467.057083 365.638364 
L 423.247917 365.638364 
z
" clip-path="url(#p27751945f4)" style="fill: #00984a"/>
   </g>
   <g id="patch_8">
    <path d="M 510.86625 390.04 
L 554.675417 390.04 
L 554.675417 373.064949 
L 510.86625 373.064949 
z
" clip-path="url(#p27751945f4)" style="fill: #00984a"/>
   </g>
   <g id="patch_9">
    <path d="M 72.774583 368.821186 
L 116.58375 368.821186 
L 116.58375 323.200736 
L 72.774583 323.200736 
z
" clip-path="url(#p27751945f4)" style="fill: #004630"/>
   </g>
   <g id="patch_10">
    <path d="M 160.392917 359.27272 
L 204.202083 359.27272 
L 204.202083 333.810143 
L 160.392917 333.810143 
z
" clip-path="url(#p27751945f4)" style="fill: #004630"/>
   </g>
   <g id="patch_11">
    <path d="M 248.01125 368.821186 
L 291.820417 368.821186 
L 291.820417 348.663313 
L 248.01125 348.663313 
z
" clip-path="url(#p27751945f4)" style="fill: #004630"/>
   </g>
   <g id="patch_12">
    <path d="M 335.629583 335.932025 
L 379.43875 335.932025 
L 379.43875 292.433456 
L 335.629583 292.433456 
z
" clip-path="url(#p27751945f4)" style="fill: #004630"/>
   </g>
   <g id="patch_13">
    <path d="M 423.247917 365.638364 
L 467.057083 365.638364 
L 467.057083 340.175787 
L 423.247917 340.175787 
z
" clip-path="url(#p27751945f4)" style="fill: #004630"/>
   </g>
   <g id="patch_14">
    <path d="M 510.86625 373.064949 
L 554.675417 373.064949 
L 554.675417 352.907076 
L 510.86625 352.907076 
z
" clip-path="url(#p27751945f4)" style="fill: #004630"/>
   </g>
   <g id="patch_15">
    <path d="M 72.774583 323.200736 
L 116.58375 323.200736 
L 116.58375 295.616278 
L 72.774583 295.616278 
z
" clip-path="url(#p27751945f4)" style="fill: #cd3b58"/>
   </g>
   <g id="patch_16">
    <path d="M 160.392917 333.810143 
L 204.202083 333.810143 
L 204.202083 323.200736 
L 160.392917 323.200736 
z
" clip-path="url(#p27751945f4)" style="fill: #cd3b58"/>
   </g>
   <g id="patch_17">
    <path d="M 248.01125 348.663313 
L 291.820417 348.663313 
L 291.820417 329.56638 
L 248.01125 329.56638 
z
" clip-path="url(#p27751945f4)" style="fill: #cd3b58"/>
   </g>
   <g id="patch_18">
    <path d="M 335.629583 292.433456 
L 379.43875 292.433456 
L 379.43875 261.666176 
L 335.629583 261.666176 
z
" clip-path="url(#p27751945f4)" style="fill: #cd3b58"/>
   </g>
   <g id="patch_19">
    <path d="M 423.247917 340.175787 
L 467.057083 340.175787 
L 467.057083 322.139796 
L 423.247917 322.139796 
z
" clip-path="url(#p27751945f4)" style="fill: #cd3b58"/>
   </g>
   <g id="patch_20">
    <path d="M 510.86625 352.907076 
L 554.675417 352.907076 
L 554.675417 336.992965 
L 510.86625 336.992965 
z
" clip-path="url(#p27751945f4)" style="fill: #cd3b58"/>
   </g>
   <g id="patch_21">
    <path d="M 72.774583 295.616278 
L 116.58375 295.616278 
L 116.58375 249.995828 
L 72.774583 249.995828 
z
" clip-path="url(#p27751945f4)" style="fill: #fac800"/>
   </g>
   <g id="patch_22">
    <path d="M 160.392917 323.200736 
L 204.202083 323.200736 
L 204.202083 280.763108 
L 160.392917 280.763108 
z
" clip-path="url(#p27751945f4)" style="fill: #fac800"/>
   </g>
   <g id="patch_23">
    <path d="M 248.01125 329.56638 
L 291.820417 329.56638 
L 291.820417 294.555337 
L 248.01125 294.555337 
z
" clip-path="url(#p27751945f4)" style="fill: #fac800"/>
   </g>
   <g id="patch_24">
    <path d="M 335.629583 261.666176 
L 379.43875 261.666176 
L 379.43875 198.009734 
L 335.629583 198.009734 
z
" clip-path="url(#p27751945f4)" style="fill: #fac800"/>
   </g>
   <g id="patch_25">
    <path d="M 423.247917 322.139796 
L 467.057083 322.139796 
L 467.057083 285.006871 
L 423.247917 285.006871 
z
" clip-path="url(#p27751945f4)" style="fill: #fac800"/>
   </g>
   <g id="patch_26">
    <path d="M 510.86625 336.992965 
L 554.675417 336.992965 
L 554.675417 305.164744 
L 510.86625 305.164744 
z
" clip-path="url(#p27751945f4)" style="fill: #fac800"/>
   </g>
   <g id="patch_27">
    <path d="M 72.774583 249.995828 
L 116.58375 249.995828 
L 116.58375 193.765971 
L 72.774583 193.765971 
z
" clip-path="url(#p27751945f4)" style="fill: #ff7b00"/>
   </g>
   <g id="patch_28">
    <path d="M 160.392917 280.763108 
L 204.202083 280.763108 
L 204.202083 244.691125 
L 160.392917 244.691125 
z
" clip-path="url(#p27751945f4)" style="fill: #ff7b00"/>
   </g>
   <g id="patch_29">
    <path d="M 248.01125 294.555337 
L 291.820417 294.555337 
L 291.820417 269.092761 
L 248.01125 269.092761 
z
" clip-path="url(#p27751945f4)" style="fill: #ff7b00"/>
   </g>
   <g id="patch_30">
    <path d="M 335.629583 198.009734 
L 379.43875 198.009734 
L 379.43875 140.718937 
L 335.629583 140.718937 
z
" clip-path="url(#p27751945f4)" style="fill: #ff7b00"/>
   </g>
   <g id="patch_31">
    <path d="M 423.247917 285.006871 
L 467.057083 285.006871 
L 467.057083 258.483354 
L 423.247917 258.483354 
z
" clip-path="url(#p27751945f4)" style="fill: #ff7b00"/>
   </g>
   <g id="patch_32">
    <path d="M 510.86625 305.164744 
L 554.675417 305.164744 
L 554.675417 282.88499 
L 510.86625 282.88499 
z
" clip-path="url(#p27751945f4)" style="fill: #ff7b00"/>
   </g>
   <g id="patch_33">
    <path d="M 72.774583 193.765971 
L 116.58375 193.765971 
L 116.58375 155.572106 
L 72.774583 155.572106 
z
" clip-path="url(#p27751945f4)" style="fill: #bc0000"/>
   </g>
   <g id="patch_34">
    <path d="M 160.392917 244.691125 
L 204.202083 244.691125 
L 204.202083 208.619141 
L 160.392917 208.619141 
z
" clip-path="url(#p27751945f4)" style="fill: #bc0000"/>
   </g>
   <g id="patch_35">
    <path d="M 248.01125 269.092761 
L 291.820417 269.092761 
L 291.820417 245.752065 
L 248.01125 245.752065 
z
" clip-path="url(#p27751945f4)" style="fill: #bc0000"/>
   </g>
   <g id="patch_36">
    <path d="M 335.629583 140.718937 
L 379.43875 140.718937 
L 379.43875 92.976605 
L 335.629583 92.976605 
z
" clip-path="url(#p27751945f4)" style="fill: #bc0000"/>
   </g>
   <g id="patch_37">
    <path d="M 423.247917 258.483354 
L 467.057083 258.483354 
L 467.057083 228.777014 
L 423.247917 228.777014 
z
" clip-path="url(#p27751945f4)" style="fill: #bc0000"/>
   </g>
   <g id="patch_38">
    <path d="M 510.86625 282.88499 
L 554.675417 282.88499 
L 554.675417 262.727117 
L 510.86625 262.727117 
z
" clip-path="url(#p27751945f4)" style="fill: #bc0000"/>
   </g>
   <g id="patch_39">
    <path d="M 72.774583 155.572106 
L 116.58375 155.572106 
L 116.58375 125.865767 
L 72.774583 125.865767 
z
" clip-path="url(#p27751945f4)" style="fill: #002868"/>
   </g>
   <g id="patch_40">
    <path d="M 160.392917 208.619141 
L 204.202083 208.619141 
L 204.202083 202.253497 
L 160.392917 202.253497 
z
" clip-path="url(#p27751945f4)" style="fill: #002868"/>
   </g>
   <g id="patch_41">
    <path d="M 248.01125 245.752065 
L 291.820417 245.752065 
L 291.820417 211.801963 
L 248.01125 211.801963 
z
" clip-path="url(#p27751945f4)" style="fill: #002868"/>
   </g>
   <g id="patch_42">
    <path d="M 335.629583 92.976605 
L 379.43875 92.976605 
L 379.43875 44.173333 
L 335.629583 44.173333 
z
" clip-path="url(#p27751945f4)" style="fill: #002868"/>
   </g>
   <g id="patch_43">
    <path d="M 423.247917 228.777014 
L 467.057083 228.777014 
L 467.057083 193.765971 
L 423.247917 193.765971 
z
" clip-path="url(#p27751945f4)" style="fill: #002868"/>
   </g>
   <g id="patch_44">
    <path d="M 510.86625 262.727117 
L 554.675417 262.727117 
L 554.675417 240.447362 
L 510.86625 240.447362 
z
" clip-path="url(#p27751945f4)" style="fill: #002868"/>
   </g>
   <g id="matplotlib.axis_1">
    <g id="xtick_1">
     <g id="line2d_1">
      <defs>
       <path id="m6a7e7299f0" d="M 0 0 
L 0 3.5 
" style="stroke: #000000; stroke-width: 0.8"/>
      </defs>
      <g>
       <use xlink:href="#m6a7e7299f0" x="94.679167" y="390.04" style="stroke: #000000; stroke-width: 0.8"/>
      </g>
     </g>
     <g id="text_1">
      <!-- 0-15 -->
      <g transform="translate(83.33151 404.638438) scale(0.1 -0.1)">
       <defs>
        <path id="DejaVuSans-30" d="M 2034 4250 
Q 1547 4250 1301 3770 
Q 1056 3291 1056 2328 
Q 1056 1369 1301 889 
Q 1547 409 2034 409 
Q 2525 409 2770 889 
Q 3016 1369 3016 2328 
Q 3016 3291 2770 3770 
Q 2525 4250 2034 4250 
z
M 2034 4750 
Q 2819 4750 3233 4129 
Q 3647 3509 3647 2328 
Q 3647 1150 3233 529 
Q 2819 -91 2034 -91 
Q 1250 -91 836 529 
Q 422 1150 422 2328 
Q 422 3509 836 4129 
Q 1250 4750 2034 4750 
z
" transform="scale(0.015625)"/>
        <path id="DejaVuSans-2d" d="M 313 2009 
L 1997 2009 
L 1997 1497 
L 313 1497 
L 313 2009 
z
" transform="scale(0.015625)"/>
        <path id="DejaVuSans-31" d="M 794 531 
L 1825 531 
L 1825 4091 
L 703 3866 
L 703 4441 
L 1819 4666 
L 2450 4666 
L 2450 531 
L 3481 531 
L 3481 0 
L 794 0 
L 794 531 
z
" transform="scale(0.015625)"/>
        <path id="DejaVuSans-35" d="M 691 4666 
L 3169 4666 
L 3169 4134 
L 1269 4134 
L 1269 2991 
Q 1406 3038 1543 3061 
Q 1681 3084 1819 3084 
Q 2600 3084 3056 2656 
Q 3513 2228 3513 1497 
Q 3513 744 3044 326 
Q 2575 -91 1722 -91 
Q 1428 -91 1123 -41 
Q 819 9 494 109 
L 494 744 
Q 775 591 1075 516 
Q 1375 441 1709 441 
Q 2250 441 2565 725 
Q 2881 1009 2881 1497 
Q 2881 1984 2565 2268 
Q 2250 2553 1709 2553 
Q 1456 2553 1204 2497 
Q 953 2441 691 2322 
L 691 4666 
z
" transform="scale(0.015625)"/>
       </defs>
       <use xlink:href="#DejaVuSans-30"/>
       <use xlink:href="#DejaVuSans-2d" transform="translate(63.623047 0)"/>
       <use xlink:href="#DejaVuSans-31" transform="translate(99.707031 0)"/>
       <use xlink:href="#DejaVuSans-35" transform="translate(163.330078 0)"/>
      </g>
     </g>
    </g>
    <g id="xtick_2">
     <g id="line2d_2">
      <g>
       <use xlink:href="#m6a7e7299f0" x="182.2975" y="390.04" style="stroke: #000000; stroke-width: 0.8"/>
      </g>
     </g>
     <g id="text_2">
      <!-- 15-30 -->
      <g transform="translate(167.768594 404.638438) scale(0.1 -0.1)">
       <defs>
        <path id="DejaVuSans-33" d="M 2597 2516 
Q 3050 2419 3304 2112 
Q 3559 1806 3559 1356 
Q 3559 666 3084 287 
Q 2609 -91 1734 -91 
Q 1441 -91 1130 -33 
Q 819 25 488 141 
L 488 750 
Q 750 597 1062 519 
Q 1375 441 1716 441 
Q 2309 441 2620 675 
Q 2931 909 2931 1356 
Q 2931 1769 2642 2001 
Q 2353 2234 1838 2234 
L 1294 2234 
L 1294 2753 
L 1863 2753 
Q 2328 2753 2575 2939 
Q 2822 3125 2822 3475 
Q 2822 3834 2567 4026 
Q 2313 4219 1838 4219 
Q 1578 4219 1281 4162 
Q 984 4106 628 3988 
L 628 4550 
Q 988 4650 1302 4700 
Q 1616 4750 1894 4750 
Q 2613 4750 3031 4423 
Q 3450 4097 3450 3541 
Q 3450 3153 3228 2886 
Q 3006 2619 2597 2516 
z
" transform="scale(0.015625)"/>
       </defs>
       <use xlink:href="#DejaVuSans-31"/>
       <use xlink:href="#DejaVuSans-35" transform="translate(63.623047 0)"/>
       <use xlink:href="#DejaVuSans-2d" transform="translate(127.246094 0)"/>
       <use xlink:href="#DejaVuSans-33" transform="translate(163.330078 0)"/>
       <use xlink:href="#DejaVuSans-30" transform="translate(226.953125 0)"/>
      </g>
     </g>
    </g>
    <g id="xtick_3">
     <g id="line2d_3">
      <g>
       <use xlink:href="#m6a7e7299f0" x="269.915833" y="390.04" style="stroke: #000000; stroke-width: 0.8"/>
      </g>
     </g>
     <g id="text_3">
      <!-- 30-45 -->
      <g transform="translate(255.386927 404.638438) scale(0.1 -0.1)">
       <defs>
        <path id="DejaVuSans-34" d="M 2419 4116 
L 825 1625 
L 2419 1625 
L 2419 4116 
z
M 2253 4666 
L 3047 4666 
L 3047 1625 
L 3713 1625 
L 3713 1100 
L 3047 1100 
L 3047 0 
L 2419 0 
L 2419 1100 
L 313 1100 
L 313 1709 
L 2253 4666 
z
" transform="scale(0.015625)"/>
       </defs>
       <use xlink:href="#DejaVuSans-33"/>
       <use xlink:href="#DejaVuSans-30" transform="translate(63.623047 0)"/>
       <use xlink:href="#DejaVuSans-2d" transform="translate(127.246094 0)"/>
       <use xlink:href="#DejaVuSans-34" transform="translate(163.330078 0)"/>
       <use xlink:href="#DejaVuSans-35" transform="translate(226.953125 0)"/>
      </g>
     </g>
    </g>
    <g id="xtick_4">
     <g id="line2d_4">
      <g>
       <use xlink:href="#m6a7e7299f0" x="357.534167" y="390.04" style="stroke: #000000; stroke-width: 0.8"/>
      </g>
     </g>
     <g id="text_4">
      <!-- 45-60 -->
      <g transform="translate(343.00526 404.638438) scale(0.1 -0.1)">
       <defs>
        <path id="DejaVuSans-36" d="M 2113 2584 
Q 1688 2584 1439 2293 
Q 1191 2003 1191 1497 
Q 1191 994 1439 701 
Q 1688 409 2113 409 
Q 2538 409 2786 701 
Q 3034 994 3034 1497 
Q 3034 2003 2786 2293 
Q 2538 2584 2113 2584 
z
M 3366 4563 
L 3366 3988 
Q 3128 4100 2886 4159 
Q 2644 4219 2406 4219 
Q 1781 4219 1451 3797 
Q 1122 3375 1075 2522 
Q 1259 2794 1537 2939 
Q 1816 3084 2150 3084 
Q 2853 3084 3261 2657 
Q 3669 2231 3669 1497 
Q 3669 778 3244 343 
Q 2819 -91 2113 -91 
Q 1303 -91 875 529 
Q 447 1150 447 2328 
Q 447 3434 972 4092 
Q 1497 4750 2381 4750 
Q 2619 4750 2861 4703 
Q 3103 4656 3366 4563 
z
" transform="scale(0.015625)"/>
       </defs>
       <use xlink:href="#DejaVuSans-34"/>
       <use xlink:href="#DejaVuSans-35" transform="translate(63.623047 0)"/>
       <use xlink:href="#DejaVuSans-2d" transform="translate(127.246094 0)"/>
       <use xlink:href="#DejaVuSans-36" transform="translate(163.330078 0)"/>
       <use xlink:href="#DejaVuSans-30" transform="translate(226.953125 0)"/>
      </g>
     </g>
    </g>
    <g id="xtick_5">
     <g id="line2d_5">
      <g>
       <use xlink:href="#m6a7e7299f0" x="445.1525" y="390.04" style="stroke: #000000; stroke-width: 0.8"/>
      </g>
     </g>
     <g id="text_5">
      <!-- 60-75 -->
      <g transform="translate(430.623594 404.638438) scale(0.1 -0.1)">
       <defs>
        <path id="DejaVuSans-37" d="M 525 4666 
L 3525 4666 
L 3525 4397 
L 1831 0 
L 1172 0 
L 2766 4134 
L 525 4134 
L 525 4666 
z
" transform="scale(0.015625)"/>
       </defs>
       <use xlink:href="#DejaVuSans-36"/>
       <use xlink:href="#DejaVuSans-30" transform="translate(63.623047 0)"/>
       <use xlink:href="#DejaVuSans-2d" transform="translate(127.246094 0)"/>
       <use xlink:href="#DejaVuSans-37" transform="translate(163.330078 0)"/>
       <use xlink:href="#DejaVuSans-35" transform="translate(226.953125 0)"/>
      </g>
     </g>
    </g>
    <g id="xtick_6">
     <g id="line2d_6">
      <g>
       <use xlink:href="#m6a7e7299f0" x="532.770833" y="390.04" style="stroke: #000000; stroke-width: 0.8"/>
      </g>
     </g>
     <g id="text_6">
      <!-- 75-90 -->
      <g transform="translate(518.241927 404.638438) scale(0.1 -0.1)">
       <defs>
        <path id="DejaVuSans-39" d="M 703 97 
L 703 672 
Q 941 559 1184 500 
Q 1428 441 1663 441 
Q 2288 441 2617 861 
Q 2947 1281 2994 2138 
Q 2813 1869 2534 1725 
Q 2256 1581 1919 1581 
Q 1219 1581 811 2004 
Q 403 2428 403 3163 
Q 403 3881 828 4315 
Q 1253 4750 1959 4750 
Q 2769 4750 3195 4129 
Q 3622 3509 3622 2328 
Q 3622 1225 3098 567 
Q 2575 -91 1691 -91 
Q 1453 -91 1209 -44 
Q 966 3 703 97 
z
M 1959 2075 
Q 2384 2075 2632 2365 
Q 2881 2656 2881 3163 
Q 2881 3666 2632 3958 
Q 2384 4250 1959 4250 
Q 1534 4250 1286 3958 
Q 1038 3666 1038 3163 
Q 1038 2656 1286 2365 
Q 1534 2075 1959 2075 
z
" transform="scale(0.015625)"/>
       </defs>
       <use xlink:href="#DejaVuSans-37"/>
       <use xlink:href="#DejaVuSans-35" transform="translate(63.623047 0)"/>
       <use xlink:href="#DejaVuSans-2d" transform="translate(127.246094 0)"/>
       <use xlink:href="#DejaVuSans-39" transform="translate(163.330078 0)"/>
       <use xlink:href="#DejaVuSans-30" transform="translate(226.953125 0)"/>
      </g>
     </g>
    </g>
    <g id="text_7">
     <!-- Game Time Period (min) -->
     <g transform="translate(252.921094 418.316562) scale(0.1 -0.1)">
      <defs>
       <path id="DejaVuSans-47" d="M 3809 666 
L 3809 1919 
L 2778 1919 
L 2778 2438 
L 4434 2438 
L 4434 434 
Q 4069 175 3628 42 
Q 3188 -91 2688 -91 
Q 1594 -91 976 548 
Q 359 1188 359 2328 
Q 359 3472 976 4111 
Q 1594 4750 2688 4750 
Q 3144 4750 3555 4637 
Q 3966 4525 4313 4306 
L 4313 3634 
Q 3963 3931 3569 4081 
Q 3175 4231 2741 4231 
Q 1884 4231 1454 3753 
Q 1025 3275 1025 2328 
Q 1025 1384 1454 906 
Q 1884 428 2741 428 
Q 3075 428 3337 486 
Q 3600 544 3809 666 
z
" transform="scale(0.015625)"/>
       <path id="DejaVuSans-61" d="M 2194 1759 
Q 1497 1759 1228 1600 
Q 959 1441 959 1056 
Q 959 750 1161 570 
Q 1363 391 1709 391 
Q 2188 391 2477 730 
Q 2766 1069 2766 1631 
L 2766 1759 
L 2194 1759 
z
M 3341 1997 
L 3341 0 
L 2766 0 
L 2766 531 
Q 2569 213 2275 61 
Q 1981 -91 1556 -91 
Q 1019 -91 701 211 
Q 384 513 384 1019 
Q 384 1609 779 1909 
Q 1175 2209 1959 2209 
L 2766 2209 
L 2766 2266 
Q 2766 2663 2505 2880 
Q 2244 3097 1772 3097 
Q 1472 3097 1187 3025 
Q 903 2953 641 2809 
L 641 3341 
Q 956 3463 1253 3523 
Q 1550 3584 1831 3584 
Q 2591 3584 2966 3190 
Q 3341 2797 3341 1997 
z
" transform="scale(0.015625)"/>
       <path id="DejaVuSans-6d" d="M 3328 2828 
Q 3544 3216 3844 3400 
Q 4144 3584 4550 3584 
Q 5097 3584 5394 3201 
Q 5691 2819 5691 2113 
L 5691 0 
L 5113 0 
L 5113 2094 
Q 5113 2597 4934 2840 
Q 4756 3084 4391 3084 
Q 3944 3084 3684 2787 
Q 3425 2491 3425 1978 
L 3425 0 
L 2847 0 
L 2847 2094 
Q 2847 2600 2669 2842 
Q 2491 3084 2119 3084 
Q 1678 3084 1418 2786 
Q 1159 2488 1159 1978 
L 1159 0 
L 581 0 
L 581 3500 
L 1159 3500 
L 1159 2956 
Q 1356 3278 1631 3431 
Q 1906 3584 2284 3584 
Q 2666 3584 2933 3390 
Q 3200 3197 3328 2828 
z
" transform="scale(0.015625)"/>
       <path id="DejaVuSans-65" d="M 3597 1894 
L 3597 1613 
L 953 1613 
Q 991 1019 1311 708 
Q 1631 397 2203 397 
Q 2534 397 2845 478 
Q 3156 559 3463 722 
L 3463 178 
Q 3153 47 2828 -22 
Q 2503 -91 2169 -91 
Q 1331 -91 842 396 
Q 353 884 353 1716 
Q 353 2575 817 3079 
Q 1281 3584 2069 3584 
Q 2775 3584 3186 3129 
Q 3597 2675 3597 1894 
z
M 3022 2063 
Q 3016 2534 2758 2815 
Q 2500 3097 2075 3097 
Q 1594 3097 1305 2825 
Q 1016 2553 972 2059 
L 3022 2063 
z
" transform="scale(0.015625)"/>
       <path id="DejaVuSans-20" transform="scale(0.015625)"/>
       <path id="DejaVuSans-54" d="M -19 4666 
L 3928 4666 
L 3928 4134 
L 2272 4134 
L 2272 0 
L 1638 0 
L 1638 4134 
L -19 4134 
L -19 4666 
z
" transform="scale(0.015625)"/>
       <path id="DejaVuSans-69" d="M 603 3500 
L 1178 3500 
L 1178 0 
L 603 0 
L 603 3500 
z
M 603 4863 
L 1178 4863 
L 1178 4134 
L 603 4134 
L 603 4863 
z
" transform="scale(0.015625)"/>
       <path id="DejaVuSans-50" d="M 1259 4147 
L 1259 2394 
L 2053 2394 
Q 2494 2394 2734 2622 
Q 2975 2850 2975 3272 
Q 2975 3691 2734 3919 
Q 2494 4147 2053 4147 
L 1259 4147 
z
M 628 4666 
L 2053 4666 
Q 2838 4666 3239 4311 
Q 3641 3956 3641 3272 
Q 3641 2581 3239 2228 
Q 2838 1875 2053 1875 
L 1259 1875 
L 1259 0 
L 628 0 
L 628 4666 
z
" transform="scale(0.015625)"/>
       <path id="DejaVuSans-72" d="M 2631 2963 
Q 2534 3019 2420 3045 
Q 2306 3072 2169 3072 
Q 1681 3072 1420 2755 
Q 1159 2438 1159 1844 
L 1159 0 
L 581 0 
L 581 3500 
L 1159 3500 
L 1159 2956 
Q 1341 3275 1631 3429 
Q 1922 3584 2338 3584 
Q 2397 3584 2469 3576 
Q 2541 3569 2628 3553 
L 2631 2963 
z
" transform="scale(0.015625)"/>
       <path id="DejaVuSans-6f" d="M 1959 3097 
Q 1497 3097 1228 2736 
Q 959 2375 959 1747 
Q 959 1119 1226 758 
Q 1494 397 1959 397 
Q 2419 397 2687 759 
Q 2956 1122 2956 1747 
Q 2956 2369 2687 2733 
Q 2419 3097 1959 3097 
z
M 1959 3584 
Q 2709 3584 3137 3096 
Q 3566 2609 3566 1747 
Q 3566 888 3137 398 
Q 2709 -91 1959 -91 
Q 1206 -91 779 398 
Q 353 888 353 1747 
Q 353 2609 779 3096 
Q 1206 3584 1959 3584 
z
" transform="scale(0.015625)"/>
       <path id="DejaVuSans-64" d="M 2906 2969 
L 2906 4863 
L 3481 4863 
L 3481 0 
L 2906 0 
L 2906 525 
Q 2725 213 2448 61 
Q 2172 -91 1784 -91 
Q 1150 -91 751 415 
Q 353 922 353 1747 
Q 353 2572 751 3078 
Q 1150 3584 1784 3584 
Q 2172 3584 2448 3432 
Q 2725 3281 2906 2969 
z
M 947 1747 
Q 947 1113 1208 752 
Q 1469 391 1925 391 
Q 2381 391 2643 752 
Q 2906 1113 2906 1747 
Q 2906 2381 2643 2742 
Q 2381 3103 1925 3103 
Q 1469 3103 1208 2742 
Q 947 2381 947 1747 
z
" transform="scale(0.015625)"/>
       <path id="DejaVuSans-28" d="M 1984 4856 
Q 1566 4138 1362 3434 
Q 1159 2731 1159 2009 
Q 1159 1288 1364 580 
Q 1569 -128 1984 -844 
L 1484 -844 
Q 1016 -109 783 600 
Q 550 1309 550 2009 
Q 550 2706 781 3412 
Q 1013 4119 1484 4856 
L 1984 4856 
z
" transform="scale(0.015625)"/>
       <path id="DejaVuSans-6e" d="M 3513 2113 
L 3513 0 
L 2938 0 
L 2938 2094 
Q 2938 2591 2744 2837 
Q 2550 3084 2163 3084 
Q 1697 3084 1428 2787 
Q 1159 2491 1159 1978 
L 1159 0 
L 581 0 
L 581 3500 
L 1159 3500 
L 1159 2956 
Q 1366 3272 1645 3428 
Q 1925 3584 2291 3584 
Q 2894 3584 3203 3211 
Q 3513 2838 3513 2113 
z
" transform="scale(0.015625)"/>
       <path id="DejaVuSans-29" d="M 513 4856 
L 1013 4856 
Q 1481 4119 1714 3412 
Q 1947 2706 1947 2009 
Q 1947 1309 1714 600 
Q 1481 -109 1013 -844 
L 513 -844 
Q 928 -128 1133 580 
Q 1338 1288 1338 2009 
Q 1338 2731 1133 3434 
Q 928 4138 513 4856 
z
" transform="scale(0.015625)"/>
      </defs>
      <use xlink:href="#DejaVuSans-47"/>
      <use xlink:href="#DejaVuSans-61" transform="translate(77.490234 0)"/>
      <use xlink:href="#DejaVuSans-6d" transform="translate(138.769531 0)"/>
      <use xlink:href="#DejaVuSans-65" transform="translate(236.181641 0)"/>
      <use xlink:href="#DejaVuSans-20" transform="translate(297.705078 0)"/>
      <use xlink:href="#DejaVuSans-54" transform="translate(329.492188 0)"/>
      <use xlink:href="#DejaVuSans-69" transform="translate(387.451172 0)"/>
      <use xlink:href="#DejaVuSans-6d" transform="translate(415.234375 0)"/>
      <use xlink:href="#DejaVuSans-65" transform="translate(512.646484 0)"/>
      <use xlink:href="#DejaVuSans-20" transform="translate(574.169922 0)"/>
      <use xlink:href="#DejaVuSans-50" transform="translate(605.957031 0)"/>
      <use xlink:href="#DejaVuSans-65" transform="translate(662.634766 0)"/>
      <use xlink:href="#DejaVuSans-72" transform="translate(724.158203 0)"/>
      <use xlink:href="#DejaVuSans-69" transform="translate(765.271484 0)"/>
      <use xlink:href="#DejaVuSans-6f" transform="translate(793.054688 0)"/>
      <use xlink:href="#DejaVuSans-64" transform="translate(854.236328 0)"/>
      <use xlink:href="#DejaVuSans-20" transform="translate(917.712891 0)"/>
      <use xlink:href="#DejaVuSans-28" transform="translate(949.5 0)"/>
      <use xlink:href="#DejaVuSans-6d" transform="translate(988.513672 0)"/>
      <use xlink:href="#DejaVuSans-69" transform="translate(1085.925781 0)"/>
      <use xlink:href="#DejaVuSans-6e" transform="translate(1113.708984 0)"/>
      <use xlink:href="#DejaVuSans-29" transform="translate(1177.087891 0)"/>
     </g>
    </g>
   </g>
   <g id="matplotlib.axis_2">
    <g id="ytick_1">
     <g id="line2d_7">
      <defs>
       <path id="m293b45a34f" d="M 0 0 
L -3.5 0 
" style="stroke: #000000; stroke-width: 0.8"/>
      </defs>
      <g>
       <use xlink:href="#m293b45a34f" x="50.87" y="390.04" style="stroke: #000000; stroke-width: 0.8"/>
      </g>
     </g>
     <g id="text_8">
      <!-- 0 -->
      <g transform="translate(37.5075 393.839219) scale(0.1 -0.1)">
       <use xlink:href="#DejaVuSans-30"/>
      </g>
     </g>
    </g>
    <g id="ytick_2">
     <g id="line2d_8">
      <g>
       <use xlink:href="#m293b45a34f" x="50.87" y="336.992965" style="stroke: #000000; stroke-width: 0.8"/>
      </g>
     </g>
     <g id="text_9">
      <!-- 50 -->
      <g transform="translate(31.145 340.792184) scale(0.1 -0.1)">
       <use xlink:href="#DejaVuSans-35"/>
       <use xlink:href="#DejaVuSans-30" transform="translate(63.623047 0)"/>
      </g>
     </g>
    </g>
    <g id="ytick_3">
     <g id="line2d_9">
      <g>
       <use xlink:href="#m293b45a34f" x="50.87" y="283.94593" style="stroke: #000000; stroke-width: 0.8"/>
      </g>
     </g>
     <g id="text_10">
      <!-- 100 -->
      <g transform="translate(24.7825 287.745149) scale(0.1 -0.1)">
       <use xlink:href="#DejaVuSans-31"/>
       <use xlink:href="#DejaVuSans-30" transform="translate(63.623047 0)"/>
       <use xlink:href="#DejaVuSans-30" transform="translate(127.246094 0)"/>
      </g>
     </g>
    </g>
    <g id="ytick_4">
     <g id="line2d_10">
      <g>
       <use xlink:href="#m293b45a34f" x="50.87" y="230.898896" style="stroke: #000000; stroke-width: 0.8"/>
      </g>
     </g>
     <g id="text_11">
      <!-- 150 -->
      <g transform="translate(24.7825 234.698114) scale(0.1 -0.1)">
       <use xlink:href="#DejaVuSans-31"/>
       <use xlink:href="#DejaVuSans-35" transform="translate(63.623047 0)"/>
       <use xlink:href="#DejaVuSans-30" transform="translate(127.246094 0)"/>
      </g>
     </g>
    </g>
    <g id="ytick_5">
     <g id="line2d_11">
      <g>
       <use xlink:href="#m293b45a34f" x="50.87" y="177.851861" style="stroke: #000000; stroke-width: 0.8"/>
      </g>
     </g>
     <g id="text_12">
      <!-- 200 -->
      <g transform="translate(24.7825 181.65108) scale(0.1 -0.1)">
       <defs>
        <path id="DejaVuSans-32" d="M 1228 531 
L 3431 531 
L 3431 0 
L 469 0 
L 469 531 
Q 828 903 1448 1529 
Q 2069 2156 2228 2338 
Q 2531 2678 2651 2914 
Q 2772 3150 2772 3378 
Q 2772 3750 2511 3984 
Q 2250 4219 1831 4219 
Q 1534 4219 1204 4116 
Q 875 4013 500 3803 
L 500 4441 
Q 881 4594 1212 4672 
Q 1544 4750 1819 4750 
Q 2544 4750 2975 4387 
Q 3406 4025 3406 3419 
Q 3406 3131 3298 2873 
Q 3191 2616 2906 2266 
Q 2828 2175 2409 1742 
Q 1991 1309 1228 531 
z
" transform="scale(0.015625)"/>
       </defs>
       <use xlink:href="#DejaVuSans-32"/>
       <use xlink:href="#DejaVuSans-30" transform="translate(63.623047 0)"/>
       <use xlink:href="#DejaVuSans-30" transform="translate(127.246094 0)"/>
      </g>
     </g>
    </g>
    <g id="ytick_6">
     <g id="line2d_12">
      <g>
       <use xlink:href="#m293b45a34f" x="50.87" y="124.804826" style="stroke: #000000; stroke-width: 0.8"/>
      </g>
     </g>
     <g id="text_13">
      <!-- 250 -->
      <g transform="translate(24.7825 128.604045) scale(0.1 -0.1)">
       <use xlink:href="#DejaVuSans-32"/>
       <use xlink:href="#DejaVuSans-35" transform="translate(63.623047 0)"/>
       <use xlink:href="#DejaVuSans-30" transform="translate(127.246094 0)"/>
      </g>
     </g>
    </g>
    <g id="ytick_7">
     <g id="line2d_13">
      <g>
       <use xlink:href="#m293b45a34f" x="50.87" y="71.757791" style="stroke: #000000; stroke-width: 0.8"/>
      </g>
     </g>
     <g id="text_14">
      <!-- 300 -->
      <g transform="translate(24.7825 75.55701) scale(0.1 -0.1)">
       <use xlink:href="#DejaVuSans-33"/>
       <use xlink:href="#DejaVuSans-30" transform="translate(63.623047 0)"/>
       <use xlink:href="#DejaVuSans-30" transform="translate(127.246094 0)"/>
      </g>
     </g>
    </g>
    <g id="text_15">
     <!-- # Pressure Events in HPZ -->
     <g transform="translate(18.702813 272.037344) rotate(-90) scale(0.1 -0.1)">
      <defs>
       <path id="DejaVuSans-23" d="M 3272 2816 
L 2363 2816 
L 2100 1772 
L 3016 1772 
L 3272 2816 
z
M 2803 4594 
L 2478 3297 
L 3391 3297 
L 3719 4594 
L 4219 4594 
L 3897 3297 
L 4872 3297 
L 4872 2816 
L 3775 2816 
L 3519 1772 
L 4513 1772 
L 4513 1294 
L 3397 1294 
L 3072 0 
L 2572 0 
L 2894 1294 
L 1978 1294 
L 1656 0 
L 1153 0 
L 1478 1294 
L 494 1294 
L 494 1772 
L 1594 1772 
L 1856 2816 
L 850 2816 
L 850 3297 
L 1978 3297 
L 2297 4594 
L 2803 4594 
z
" transform="scale(0.015625)"/>
       <path id="DejaVuSans-73" d="M 2834 3397 
L 2834 2853 
Q 2591 2978 2328 3040 
Q 2066 3103 1784 3103 
Q 1356 3103 1142 2972 
Q 928 2841 928 2578 
Q 928 2378 1081 2264 
Q 1234 2150 1697 2047 
L 1894 2003 
Q 2506 1872 2764 1633 
Q 3022 1394 3022 966 
Q 3022 478 2636 193 
Q 2250 -91 1575 -91 
Q 1294 -91 989 -36 
Q 684 19 347 128 
L 347 722 
Q 666 556 975 473 
Q 1284 391 1588 391 
Q 1994 391 2212 530 
Q 2431 669 2431 922 
Q 2431 1156 2273 1281 
Q 2116 1406 1581 1522 
L 1381 1569 
Q 847 1681 609 1914 
Q 372 2147 372 2553 
Q 372 3047 722 3315 
Q 1072 3584 1716 3584 
Q 2034 3584 2315 3537 
Q 2597 3491 2834 3397 
z
" transform="scale(0.015625)"/>
       <path id="DejaVuSans-75" d="M 544 1381 
L 544 3500 
L 1119 3500 
L 1119 1403 
Q 1119 906 1312 657 
Q 1506 409 1894 409 
Q 2359 409 2629 706 
Q 2900 1003 2900 1516 
L 2900 3500 
L 3475 3500 
L 3475 0 
L 2900 0 
L 2900 538 
Q 2691 219 2414 64 
Q 2138 -91 1772 -91 
Q 1169 -91 856 284 
Q 544 659 544 1381 
z
M 1991 3584 
L 1991 3584 
z
" transform="scale(0.015625)"/>
       <path id="DejaVuSans-45" d="M 628 4666 
L 3578 4666 
L 3578 4134 
L 1259 4134 
L 1259 2753 
L 3481 2753 
L 3481 2222 
L 1259 2222 
L 1259 531 
L 3634 531 
L 3634 0 
L 628 0 
L 628 4666 
z
" transform="scale(0.015625)"/>
       <path id="DejaVuSans-76" d="M 191 3500 
L 800 3500 
L 1894 563 
L 2988 3500 
L 3597 3500 
L 2284 0 
L 1503 0 
L 191 3500 
z
" transform="scale(0.015625)"/>
       <path id="DejaVuSans-74" d="M 1172 4494 
L 1172 3500 
L 2356 3500 
L 2356 3053 
L 1172 3053 
L 1172 1153 
Q 1172 725 1289 603 
Q 1406 481 1766 481 
L 2356 481 
L 2356 0 
L 1766 0 
Q 1100 0 847 248 
Q 594 497 594 1153 
L 594 3053 
L 172 3053 
L 172 3500 
L 594 3500 
L 594 4494 
L 1172 4494 
z
" transform="scale(0.015625)"/>
       <path id="DejaVuSans-48" d="M 628 4666 
L 1259 4666 
L 1259 2753 
L 3553 2753 
L 3553 4666 
L 4184 4666 
L 4184 0 
L 3553 0 
L 3553 2222 
L 1259 2222 
L 1259 0 
L 628 0 
L 628 4666 
z
" transform="scale(0.015625)"/>
       <path id="DejaVuSans-5a" d="M 359 4666 
L 4025 4666 
L 4025 4184 
L 1075 531 
L 4097 531 
L 4097 0 
L 288 0 
L 288 481 
L 3238 4134 
L 359 4134 
L 359 4666 
z
" transform="scale(0.015625)"/>
      </defs>
      <use xlink:href="#DejaVuSans-23"/>
      <use xlink:href="#DejaVuSans-20" transform="translate(83.789062 0)"/>
      <use xlink:href="#DejaVuSans-50" transform="translate(115.576172 0)"/>
      <use xlink:href="#DejaVuSans-72" transform="translate(174.128906 0)"/>
      <use xlink:href="#DejaVuSans-65" transform="translate(212.992188 0)"/>
      <use xlink:href="#DejaVuSans-73" transform="translate(274.515625 0)"/>
      <use xlink:href="#DejaVuSans-73" transform="translate(326.615234 0)"/>
      <use xlink:href="#DejaVuSans-75" transform="translate(378.714844 0)"/>
      <use xlink:href="#DejaVuSans-72" transform="translate(442.09375 0)"/>
      <use xlink:href="#DejaVuSans-65" transform="translate(480.957031 0)"/>
      <use xlink:href="#DejaVuSans-20" transform="translate(542.480469 0)"/>
      <use xlink:href="#DejaVuSans-45" transform="translate(574.267578 0)"/>
      <use xlink:href="#DejaVuSans-76" transform="translate(637.451172 0)"/>
      <use xlink:href="#DejaVuSans-65" transform="translate(696.630859 0)"/>
      <use xlink:href="#DejaVuSans-6e" transform="translate(758.154297 0)"/>
      <use xlink:href="#DejaVuSans-74" transform="translate(821.533203 0)"/>
      <use xlink:href="#DejaVuSans-73" transform="translate(860.742188 0)"/>
      <use xlink:href="#DejaVuSans-20" transform="translate(912.841797 0)"/>
      <use xlink:href="#DejaVuSans-69" transform="translate(944.628906 0)"/>
      <use xlink:href="#DejaVuSans-6e" transform="translate(972.412109 0)"/>
      <use xlink:href="#DejaVuSans-20" transform="translate(1035.791016 0)"/>
      <use xlink:href="#DejaVuSans-48" transform="translate(1067.578125 0)"/>
      <use xlink:href="#DejaVuSans-50" transform="translate(1142.773438 0)"/>
      <use xlink:href="#DejaVuSans-5a" transform="translate(1203.076172 0)"/>
     </g>
    </g>
   </g>
   <g id="patch_45">
    <path d="M 50.87 390.04 
L 50.87 26.88 
" style="fill: none; stroke: #000000; stroke-width: 0.8; stroke-linejoin: miter; stroke-linecap: square"/>
   </g>
   <g id="patch_46">
    <path d="M 576.58 390.04 
L 576.58 26.88 
" style="fill: none; stroke: #000000; stroke-width: 0.8; stroke-linejoin: miter; stroke-linecap: square"/>
   </g>
   <g id="patch_47">
    <path d="M 50.87 390.04 
L 576.58 390.04 
" style="fill: none; stroke: #000000; stroke-width: 0.8; stroke-linejoin: miter; stroke-linecap: square"/>
   </g>
   <g id="patch_48">
    <path d="M 50.87 26.88 
L 576.58 26.88 
" style="fill: none; stroke: #000000; stroke-width: 0.8; stroke-linejoin: miter; stroke-linecap: square"/>
   </g>
   <g id="text_16">
    <!-- Argentina's Pressing Intensity Over Time -->
    <g transform="translate(191.760938 20.88) scale(0.12 -0.12)">
     <defs>
      <path id="DejaVuSans-41" d="M 2188 4044 
L 1331 1722 
L 3047 1722 
L 2188 4044 
z
M 1831 4666 
L 2547 4666 
L 4325 0 
L 3669 0 
L 3244 1197 
L 1141 1197 
L 716 0 
L 50 0 
L 1831 4666 
z
" transform="scale(0.015625)"/>
      <path id="DejaVuSans-67" d="M 2906 1791 
Q 2906 2416 2648 2759 
Q 2391 3103 1925 3103 
Q 1463 3103 1205 2759 
Q 947 2416 947 1791 
Q 947 1169 1205 825 
Q 1463 481 1925 481 
Q 2391 481 2648 825 
Q 2906 1169 2906 1791 
z
M 3481 434 
Q 3481 -459 3084 -895 
Q 2688 -1331 1869 -1331 
Q 1566 -1331 1297 -1286 
Q 1028 -1241 775 -1147 
L 775 -588 
Q 1028 -725 1275 -790 
Q 1522 -856 1778 -856 
Q 2344 -856 2625 -561 
Q 2906 -266 2906 331 
L 2906 616 
Q 2728 306 2450 153 
Q 2172 0 1784 0 
Q 1141 0 747 490 
Q 353 981 353 1791 
Q 353 2603 747 3093 
Q 1141 3584 1784 3584 
Q 2172 3584 2450 3431 
Q 2728 3278 2906 2969 
L 2906 3500 
L 3481 3500 
L 3481 434 
z
" transform="scale(0.015625)"/>
      <path id="DejaVuSans-27" d="M 1147 4666 
L 1147 2931 
L 616 2931 
L 616 4666 
L 1147 4666 
z
" transform="scale(0.015625)"/>
      <path id="DejaVuSans-49" d="M 628 4666 
L 1259 4666 
L 1259 0 
L 628 0 
L 628 4666 
z
" transform="scale(0.015625)"/>
      <path id="DejaVuSans-79" d="M 2059 -325 
Q 1816 -950 1584 -1140 
Q 1353 -1331 966 -1331 
L 506 -1331 
L 506 -850 
L 844 -850 
Q 1081 -850 1212 -737 
Q 1344 -625 1503 -206 
L 1606 56 
L 191 3500 
L 800 3500 
L 1894 763 
L 2988 3500 
L 3597 3500 
L 2059 -325 
z
" transform="scale(0.015625)"/>
      <path id="DejaVuSans-4f" d="M 2522 4238 
Q 1834 4238 1429 3725 
Q 1025 3213 1025 2328 
Q 1025 1447 1429 934 
Q 1834 422 2522 422 
Q 3209 422 3611 934 
Q 4013 1447 4013 2328 
Q 4013 3213 3611 3725 
Q 3209 4238 2522 4238 
z
M 2522 4750 
Q 3503 4750 4090 4092 
Q 4678 3434 4678 2328 
Q 4678 1225 4090 567 
Q 3503 -91 2522 -91 
Q 1538 -91 948 565 
Q 359 1222 359 2328 
Q 359 3434 948 4092 
Q 1538 4750 2522 4750 
z
" transform="scale(0.015625)"/>
     </defs>
     <use xlink:href="#DejaVuSans-41"/>
     <use xlink:href="#DejaVuSans-72" transform="translate(68.408203 0)"/>
     <use xlink:href="#DejaVuSans-67" transform="translate(107.771484 0)"/>
     <use xlink:href="#DejaVuSans-65" transform="translate(171.248047 0)"/>
     <use xlink:href="#DejaVuSans-6e" transform="translate(232.771484 0)"/>
     <use xlink:href="#DejaVuSans-74" transform="translate(296.150391 0)"/>
     <use xlink:href="#DejaVuSans-69" transform="translate(335.359375 0)"/>
     <use xlink:href="#DejaVuSans-6e" transform="translate(363.142578 0)"/>
     <use xlink:href="#DejaVuSans-61" transform="translate(426.521484 0)"/>
     <use xlink:href="#DejaVuSans-27" transform="translate(487.800781 0)"/>
     <use xlink:href="#DejaVuSans-73" transform="translate(515.291016 0)"/>
     <use xlink:href="#DejaVuSans-20" transform="translate(567.390625 0)"/>
     <use xlink:href="#DejaVuSans-50" transform="translate(599.177734 0)"/>
     <use xlink:href="#DejaVuSans-72" transform="translate(657.730469 0)"/>
     <use xlink:href="#DejaVuSans-65" transform="translate(696.59375 0)"/>
     <use xlink:href="#DejaVuSans-73" transform="translate(758.117188 0)"/>
     <use xlink:href="#DejaVuSans-73" transform="translate(810.216797 0)"/>
     <use xlink:href="#DejaVuSans-69" transform="translate(862.316406 0)"/>
     <use xlink:href="#DejaVuSans-6e" transform="translate(890.099609 0)"/>
     <use xlink:href="#DejaVuSans-67" transform="translate(953.478516 0)"/>
     <use xlink:href="#DejaVuSans-20" transform="translate(1016.955078 0)"/>
     <use xlink:href="#DejaVuSans-49" transform="translate(1048.742188 0)"/>
     <use xlink:href="#DejaVuSans-6e" transform="translate(1078.234375 0)"/>
     <use xlink:href="#DejaVuSans-74" transform="translate(1141.613281 0)"/>
     <use xlink:href="#DejaVuSans-65" transform="translate(1180.822266 0)"/>
     <use xlink:href="#DejaVuSans-6e" transform="translate(1242.345703 0)"/>
     <use xlink:href="#DejaVuSans-73" transform="translate(1305.724609 0)"/>
     <use xlink:href="#DejaVuSans-69" transform="translate(1357.824219 0)"/>
     <use xlink:href="#DejaVuSans-74" transform="translate(1385.607422 0)"/>
     <use xlink:href="#DejaVuSans-79" transform="translate(1424.816406 0)"/>
     <use xlink:href="#DejaVuSans-20" transform="translate(1483.996094 0)"/>
     <use xlink:href="#DejaVuSans-4f" transform="translate(1515.783203 0)"/>
     <use xlink:href="#DejaVuSans-76" transform="translate(1594.494141 0)"/>
     <use xlink:href="#DejaVuSans-65" transform="translate(1653.673828 0)"/>
     <use xlink:href="#DejaVuSans-72" transform="translate(1715.197266 0)"/>
     <use xlink:href="#DejaVuSans-20" transform="translate(1756.310547 0)"/>
     <use xlink:href="#DejaVuSans-54" transform="translate(1788.097656 0)"/>
     <use xlink:href="#DejaVuSans-69" transform="translate(1846.056641 0)"/>
     <use xlink:href="#DejaVuSans-6d" transform="translate(1873.839844 0)"/>
     <use xlink:href="#DejaVuSans-65" transform="translate(1971.251953 0)"/>
    </g>
   </g>
   <g id="legend_1">
    <g id="patch_49">
     <path d="M 609.8655 152.305 
L 705.318625 152.305 
Q 707.318625 152.305 707.318625 150.305 
L 707.318625 33.88 
Q 707.318625 31.88 705.318625 31.88 
L 609.8655 31.88 
Q 607.8655 31.88 607.8655 33.88 
L 607.8655 150.305 
Q 607.8655 152.305 609.8655 152.305 
z
" style="fill: #ffffff; opacity: 0.8; stroke: #cccccc; stroke-linejoin: miter"/>
    </g>
    <g id="text_17">
     <!-- Opposition -->
     <g transform="translate(630.677219 43.478437) scale(0.1 -0.1)">
      <defs>
       <path id="DejaVuSans-70" d="M 1159 525 
L 1159 -1331 
L 581 -1331 
L 581 3500 
L 1159 3500 
L 1159 2969 
Q 1341 3281 1617 3432 
Q 1894 3584 2278 3584 
Q 2916 3584 3314 3078 
Q 3713 2572 3713 1747 
Q 3713 922 3314 415 
Q 2916 -91 2278 -91 
Q 1894 -91 1617 61 
Q 1341 213 1159 525 
z
M 3116 1747 
Q 3116 2381 2855 2742 
Q 2594 3103 2138 3103 
Q 1681 3103 1420 2742 
Q 1159 2381 1159 1747 
Q 1159 1113 1420 752 
Q 1681 391 2138 391 
Q 2594 391 2855 752 
Q 3116 1113 3116 1747 
z
" transform="scale(0.015625)"/>
      </defs>
      <use xlink:href="#DejaVuSans-4f"/>
      <use xlink:href="#DejaVuSans-70" transform="translate(78.710938 0)"/>
      <use xlink:href="#DejaVuSans-70" transform="translate(142.1875 0)"/>
      <use xlink:href="#DejaVuSans-6f" transform="translate(205.664062 0)"/>
      <use xlink:href="#DejaVuSans-73" transform="translate(266.845703 0)"/>
      <use xlink:href="#DejaVuSans-69" transform="translate(318.945312 0)"/>
      <use xlink:href="#DejaVuSans-74" transform="translate(346.728516 0)"/>
      <use xlink:href="#DejaVuSans-69" transform="translate(385.9375 0)"/>
      <use xlink:href="#DejaVuSans-6f" transform="translate(413.720703 0)"/>
      <use xlink:href="#DejaVuSans-6e" transform="translate(474.902344 0)"/>
     </g>
    </g>
    <g id="patch_50">
     <path d="M 611.8655 58.156563 
L 631.8655 58.156563 
L 631.8655 51.156563 
L 611.8655 51.156563 
z
" style="fill: #00984a"/>
    </g>
    <g id="text_18">
     <!-- Saudi Arabia -->
     <g transform="translate(639.8655 58.156563) scale(0.1 -0.1)">
      <defs>
       <path id="DejaVuSans-53" d="M 3425 4513 
L 3425 3897 
Q 3066 4069 2747 4153 
Q 2428 4238 2131 4238 
Q 1616 4238 1336 4038 
Q 1056 3838 1056 3469 
Q 1056 3159 1242 3001 
Q 1428 2844 1947 2747 
L 2328 2669 
Q 3034 2534 3370 2195 
Q 3706 1856 3706 1288 
Q 3706 609 3251 259 
Q 2797 -91 1919 -91 
Q 1588 -91 1214 -16 
Q 841 59 441 206 
L 441 856 
Q 825 641 1194 531 
Q 1563 422 1919 422 
Q 2459 422 2753 634 
Q 3047 847 3047 1241 
Q 3047 1584 2836 1778 
Q 2625 1972 2144 2069 
L 1759 2144 
Q 1053 2284 737 2584 
Q 422 2884 422 3419 
Q 422 4038 858 4394 
Q 1294 4750 2059 4750 
Q 2388 4750 2728 4690 
Q 3069 4631 3425 4513 
z
" transform="scale(0.015625)"/>
       <path id="DejaVuSans-62" d="M 3116 1747 
Q 3116 2381 2855 2742 
Q 2594 3103 2138 3103 
Q 1681 3103 1420 2742 
Q 1159 2381 1159 1747 
Q 1159 1113 1420 752 
Q 1681 391 2138 391 
Q 2594 391 2855 752 
Q 3116 1113 3116 1747 
z
M 1159 2969 
Q 1341 3281 1617 3432 
Q 1894 3584 2278 3584 
Q 2916 3584 3314 3078 
Q 3713 2572 3713 1747 
Q 3713 922 3314 415 
Q 2916 -91 2278 -91 
Q 1894 -91 1617 61 
Q 1341 213 1159 525 
L 1159 0 
L 581 0 
L 581 4863 
L 1159 4863 
L 1159 2969 
z
" transform="scale(0.015625)"/>
      </defs>
      <use xlink:href="#DejaVuSans-53"/>
      <use xlink:href="#DejaVuSans-61" transform="translate(63.476562 0)"/>
      <use xlink:href="#DejaVuSans-75" transform="translate(124.755859 0)"/>
      <use xlink:href="#DejaVuSans-64" transform="translate(188.134766 0)"/>
      <use xlink:href="#DejaVuSans-69" transform="translate(251.611328 0)"/>
      <use xlink:href="#DejaVuSans-20" transform="translate(279.394531 0)"/>
      <use xlink:href="#DejaVuSans-41" transform="translate(311.181641 0)"/>
      <use xlink:href="#DejaVuSans-72" transform="translate(379.589844 0)"/>
      <use xlink:href="#DejaVuSans-61" transform="translate(420.703125 0)"/>
      <use xlink:href="#DejaVuSans-62" transform="translate(481.982422 0)"/>
      <use xlink:href="#DejaVuSans-69" transform="translate(545.458984 0)"/>
      <use xlink:href="#DejaVuSans-61" transform="translate(573.242188 0)"/>
     </g>
    </g>
    <g id="patch_51">
     <path d="M 611.8655 72.834688 
L 631.8655 72.834688 
L 631.8655 65.834688 
L 611.8655 65.834688 
z
" style="fill: #004630"/>
    </g>
    <g id="text_19">
     <!-- Mexico -->
     <g transform="translate(639.8655 72.834688) scale(0.1 -0.1)">
      <defs>
       <path id="DejaVuSans-4d" d="M 628 4666 
L 1569 4666 
L 2759 1491 
L 3956 4666 
L 4897 4666 
L 4897 0 
L 4281 0 
L 4281 4097 
L 3078 897 
L 2444 897 
L 1241 4097 
L 1241 0 
L 628 0 
L 628 4666 
z
" transform="scale(0.015625)"/>
       <path id="DejaVuSans-78" d="M 3513 3500 
L 2247 1797 
L 3578 0 
L 2900 0 
L 1881 1375 
L 863 0 
L 184 0 
L 1544 1831 
L 300 3500 
L 978 3500 
L 1906 2253 
L 2834 3500 
L 3513 3500 
z
" transform="scale(0.015625)"/>
       <path id="DejaVuSans-63" d="M 3122 3366 
L 3122 2828 
Q 2878 2963 2633 3030 
Q 2388 3097 2138 3097 
Q 1578 3097 1268 2742 
Q 959 2388 959 1747 
Q 959 1106 1268 751 
Q 1578 397 2138 397 
Q 2388 397 2633 464 
Q 2878 531 3122 666 
L 3122 134 
Q 2881 22 2623 -34 
Q 2366 -91 2075 -91 
Q 1284 -91 818 406 
Q 353 903 353 1747 
Q 353 2603 823 3093 
Q 1294 3584 2113 3584 
Q 2378 3584 2631 3529 
Q 2884 3475 3122 3366 
z
" transform="scale(0.015625)"/>
      </defs>
      <use xlink:href="#DejaVuSans-4d"/>
      <use xlink:href="#DejaVuSans-65" transform="translate(86.279297 0)"/>
      <use xlink:href="#DejaVuSans-78" transform="translate(146.052734 0)"/>
      <use xlink:href="#DejaVuSans-69" transform="translate(205.232422 0)"/>
      <use xlink:href="#DejaVuSans-63" transform="translate(233.015625 0)"/>
      <use xlink:href="#DejaVuSans-6f" transform="translate(287.996094 0)"/>
     </g>
    </g>
    <g id="patch_52">
     <path d="M 611.8655 87.512812 
L 631.8655 87.512812 
L 631.8655 80.512812 
L 611.8655 80.512812 
z
" style="fill: #cd3b58"/>
    </g>
    <g id="text_20">
     <!-- Poland -->
     <g transform="translate(639.8655 87.512812) scale(0.1 -0.1)">
      <defs>
       <path id="DejaVuSans-6c" d="M 603 4863 
L 1178 4863 
L 1178 0 
L 603 0 
L 603 4863 
z
" transform="scale(0.015625)"/>
      </defs>
      <use xlink:href="#DejaVuSans-50"/>
      <use xlink:href="#DejaVuSans-6f" transform="translate(56.677734 0)"/>
      <use xlink:href="#DejaVuSans-6c" transform="translate(117.859375 0)"/>
      <use xlink:href="#DejaVuSans-61" transform="translate(145.642578 0)"/>
      <use xlink:href="#DejaVuSans-6e" transform="translate(206.921875 0)"/>
      <use xlink:href="#DejaVuSans-64" transform="translate(270.300781 0)"/>
     </g>
    </g>
    <g id="patch_53">
     <path d="M 611.8655 102.190938 
L 631.8655 102.190938 
L 631.8655 95.190938 
L 611.8655 95.190938 
z
" style="fill: #fac800"/>
    </g>
    <g id="text_21">
     <!-- Australia -->
     <g transform="translate(639.8655 102.190938) scale(0.1 -0.1)">
      <use xlink:href="#DejaVuSans-41"/>
      <use xlink:href="#DejaVuSans-75" transform="translate(68.408203 0)"/>
      <use xlink:href="#DejaVuSans-73" transform="translate(131.787109 0)"/>
      <use xlink:href="#DejaVuSans-74" transform="translate(183.886719 0)"/>
      <use xlink:href="#DejaVuSans-72" transform="translate(223.095703 0)"/>
      <use xlink:href="#DejaVuSans-61" transform="translate(264.208984 0)"/>
      <use xlink:href="#DejaVuSans-6c" transform="translate(325.488281 0)"/>
      <use xlink:href="#DejaVuSans-69" transform="translate(353.271484 0)"/>
      <use xlink:href="#DejaVuSans-61" transform="translate(381.054688 0)"/>
     </g>
    </g>
    <g id="patch_54">
     <path d="M 611.8655 116.869063 
L 631.8655 116.869063 
L 631.8655 109.869063 
L 611.8655 109.869063 
z
" style="fill: #ff7b00"/>
    </g>
    <g id="text_22">
     <!-- Netherlands -->
     <g transform="translate(639.8655 116.869063) scale(0.1 -0.1)">
      <defs>
       <path id="DejaVuSans-4e" d="M 628 4666 
L 1478 4666 
L 3547 763 
L 3547 4666 
L 4159 4666 
L 4159 0 
L 3309 0 
L 1241 3903 
L 1241 0 
L 628 0 
L 628 4666 
z
" transform="scale(0.015625)"/>
       <path id="DejaVuSans-68" d="M 3513 2113 
L 3513 0 
L 2938 0 
L 2938 2094 
Q 2938 2591 2744 2837 
Q 2550 3084 2163 3084 
Q 1697 3084 1428 2787 
Q 1159 2491 1159 1978 
L 1159 0 
L 581 0 
L 581 4863 
L 1159 4863 
L 1159 2956 
Q 1366 3272 1645 3428 
Q 1925 3584 2291 3584 
Q 2894 3584 3203 3211 
Q 3513 2838 3513 2113 
z
" transform="scale(0.015625)"/>
      </defs>
      <use xlink:href="#DejaVuSans-4e"/>
      <use xlink:href="#DejaVuSans-65" transform="translate(74.804688 0)"/>
      <use xlink:href="#DejaVuSans-74" transform="translate(136.328125 0)"/>
      <use xlink:href="#DejaVuSans-68" transform="translate(175.537109 0)"/>
      <use xlink:href="#DejaVuSans-65" transform="translate(238.916016 0)"/>
      <use xlink:href="#DejaVuSans-72" transform="translate(300.439453 0)"/>
      <use xlink:href="#DejaVuSans-6c" transform="translate(341.552734 0)"/>
      <use xlink:href="#DejaVuSans-61" transform="translate(369.335938 0)"/>
      <use xlink:href="#DejaVuSans-6e" transform="translate(430.615234 0)"/>
      <use xlink:href="#DejaVuSans-64" transform="translate(493.994141 0)"/>
      <use xlink:href="#DejaVuSans-73" transform="translate(557.470703 0)"/>
     </g>
    </g>
    <g id="patch_55">
     <path d="M 611.8655 131.547188 
L 631.8655 131.547188 
L 631.8655 124.547188 
L 611.8655 124.547188 
z
" style="fill: #bc0000"/>
    </g>
    <g id="text_23">
     <!-- Croatia -->
     <g transform="translate(639.8655 131.547188) scale(0.1 -0.1)">
      <defs>
       <path id="DejaVuSans-43" d="M 4122 4306 
L 4122 3641 
Q 3803 3938 3442 4084 
Q 3081 4231 2675 4231 
Q 1875 4231 1450 3742 
Q 1025 3253 1025 2328 
Q 1025 1406 1450 917 
Q 1875 428 2675 428 
Q 3081 428 3442 575 
Q 3803 722 4122 1019 
L 4122 359 
Q 3791 134 3420 21 
Q 3050 -91 2638 -91 
Q 1578 -91 968 557 
Q 359 1206 359 2328 
Q 359 3453 968 4101 
Q 1578 4750 2638 4750 
Q 3056 4750 3426 4639 
Q 3797 4528 4122 4306 
z
" transform="scale(0.015625)"/>
      </defs>
      <use xlink:href="#DejaVuSans-43"/>
      <use xlink:href="#DejaVuSans-72" transform="translate(69.824219 0)"/>
      <use xlink:href="#DejaVuSans-6f" transform="translate(108.6875 0)"/>
      <use xlink:href="#DejaVuSans-61" transform="translate(169.869141 0)"/>
      <use xlink:href="#DejaVuSans-74" transform="translate(231.148438 0)"/>
      <use xlink:href="#DejaVuSans-69" transform="translate(270.357422 0)"/>
      <use xlink:href="#DejaVuSans-61" transform="translate(298.140625 0)"/>
     </g>
    </g>
    <g id="patch_56">
     <path d="M 611.8655 146.225312 
L 631.8655 146.225312 
L 631.8655 139.225312 
L 611.8655 139.225312 
z
" style="fill: #002868"/>
    </g>
    <g id="text_24">
     <!-- France -->
     <g transform="translate(639.8655 146.225312) scale(0.1 -0.1)">
      <defs>
       <path id="DejaVuSans-46" d="M 628 4666 
L 3309 4666 
L 3309 4134 
L 1259 4134 
L 1259 2759 
L 3109 2759 
L 3109 2228 
L 1259 2228 
L 1259 0 
L 628 0 
L 628 4666 
z
" transform="scale(0.015625)"/>
      </defs>
      <use xlink:href="#DejaVuSans-46"/>
      <use xlink:href="#DejaVuSans-72" transform="translate(50.269531 0)"/>
      <use xlink:href="#DejaVuSans-61" transform="translate(91.382812 0)"/>
      <use xlink:href="#DejaVuSans-6e" transform="translate(152.662109 0)"/>
      <use xlink:href="#DejaVuSans-63" transform="translate(216.041016 0)"/>
      <use xlink:href="#DejaVuSans-65" transform="translate(271.021484 0)"/>
     </g>
    </g>
   </g>
  </g>
 </g>
 <defs>
  <clipPath id="p27751945f4">
   <rect x="50.87" y="26.88" width="525.71" height="363.16"/>
  </clipPath>
 </defs>
</svg>
